{"title":"Captain Phillips 2013 CAM XViD-UNiQUE","uid":9102737,"size":1520177411,"categoryP":"video","categoryS":"movies","magnet":"?xt=urn:btih:6d372f115b7ac81b41b6ff2f2caa8c54cb21be0c&amp;dn=Captain+Phillips+2013+CAM+XViD-UNiQUE&amp;tr=udp%3A%2F%2Ftracker.openbittorrent.com%3A80&amp;tr=udp%3A%2F%2Fopen.demonii.com%3A1337&amp;tr=udp%3A%2F%2Ftracker.coppersurfer.tk%3A6969&amp;tr=udp%3A%2F%2Fexodus.desync.com%3A6969","seeders":35,"leechers":2,"uploader":"xxxlavalxxx","files":-1,"time":1382803813,"description":" &lt;a href=&quot;\nhttp://www.imdb.com/title/tt1535109/&quot; rel=&quot;nofollow&quot; target=&quot;_NEW&quot;&gt;\nhttp://www.imdb.com/title/tt1535109/&lt;/a&gt;\n\n\nThe true story of Captain Richard Phillips and the 2009 hijacking by Somali pirates of the US-flagged MV Maersk Alabama, the first American cargo ship to be hijacked in two hundred years.\n\nDirector: Paul Greengrass\nWriters: Billy Ray (screenplay), Richard Phillips (based upon the book &quot;A Captain's Duty: Somali Pirates, Navy SEALS, and Dangerous Days at Sea&quot; by)\nStars: Tom Hanks, Barkhad Abdi, Barkhad Abdirahman \nGenres: Action | Adventure | Biography | Crime | Drama | Thriller\nCountry: USA\nLanguage: English | Somali\n\n\n\nCaptain Phillips 2013 CAM XViD UNiQUE \n\nFormat: AVI \nFormat/Info: Audio Video Interleave \nFile size: 1.40 GiB \nDuration: 2h 7mn \nOverall bit rate: 1 573 Kbps \nWriting application: VirtualDubMod 1.5.10.2 (build 2540/release) \nWriting library: VirtualDubMod build 2540/release \n\nVideo \nID: 0 \nFormat: MPEG-4 Visual \nFormat profile: Advanced Simple@L5 \nFormat settings, BVOP: 2 \nFormat settings, QPel: No \nFormat settings, GMC: No warppoints \nFormat settings, Matrix: Default (H.263) \nMuxing mode: Packed bitstream \nCodec ID: XVID \nCodec ID/Hint: XviD \nDuration: 2h 7mn \nBit rate: 1 433 Kbps \nWidth: 712 pixels \nHeight: 332 pixels \nDisplay aspect ratio: 2.145 \nFrame rate: 29.970 fps \nColor space: YUV \nChroma subsampling: 4:2:0 \nBit depth: 8 bits \nScan type: Progressive \nCompression mode: Lossy \nBits/(Pixel*Frame): 0.202 \nStream size: 1.27 GiB (91%) \nWriting library: XviD 64 \n\nAudio \nID: 1 \nFormat: MPEG Audio \nFormat version: Version 1 \nFormat profile: Layer 3 \nCodec ID: 55 \nCodec ID/Hint: MP3 \nDuration: 2h 7mn \nBit rate mode: Constant \nBit rate: 128 Kbps \nChannel(s): 2 channels \nSampling rate: 48.0 KHz \nCompression mode: Lossy \nStream size: 116 MiB (8%) \nAlignment: Split accross interleaves \nInterleave, duration: 33 ms (1.00 video frame) \nInterleave, preload duration: 500 ms\n\nSource Used    Patriots   - Thanks\n\n\n &lt;a href=&quot;\nhttp://i.imgur.com/8i6hB9o.png&quot; rel=&quot;nofollow&quot; target=&quot;_NEW&quot;&gt;\nhttp://i.imgur.com/8i6hB9o.png&lt;/a&gt; &lt;a href=&quot;\nhttp://i.imgur.com/iiFuzse.png&quot; rel=&quot;nofollow&quot; target=&quot;_NEW&quot;&gt;\nhttp://i.imgur.com/iiFuzse.png&lt;/a&gt; &lt;a href=&quot;\nhttp://i.imgur.com/RLKegcZ.png&quot; rel=&quot;nofollow&quot; target=&quot;_NEW&quot;&gt;\nhttp://i.imgur.com/RLKegcZ.png&lt;/a&gt; &lt;a href=&quot;\nhttp://i.imgur.com/hUKdCqv.png&quot; rel=&quot;nofollow&quot; target=&quot;_NEW&quot;&gt;\nhttp://i.imgur.com/hUKdCqv.png&lt;/a&gt;\n","torrent":{"xt":"urn:btih:6d372f115b7ac81b41b6ff2f2caa8c54cb21be0c","amp;dn":"Captain+Phillips+2013+CAM+XViD-UNiQUE","amp;tr":["udp%3A%2F%2Ftracker.openbittorrent.com%3A80","udp%3A%2F%2Fopen.demonii.com%3A1337","udp%3A%2F%2Ftracker.coppersurfer.tk%3A6969","udp%3A%2F%2Fexodus.desync.com%3A6969"],"infoHash":"6d372f115b7ac81b41b6ff2f2caa8c54cb21be0c","infoHashBuffer":{"type":"Buffer","data":[109,55,47,17,91,122,200,27,65,182,255,47,44,170,140,84,203,33,190,12]},"announce":[],"urlList":[]}}